<svg width="499" height="99" viewBox="0 0 499 99" fill="none" xmlns="http://www.w3.org/2000/svg">
<path d="M0.508057 40.525C0.508057 37.2113 3.19435 34.525 6.50806 34.525C9.82177 34.525 12.5081 37.2113 12.5081 40.525V58.525C12.5081 61.8387 9.82177 64.525 6.50806 64.525C3.19435 64.525 0.508057 61.8387 0.508057 58.525V40.525Z" fill="#F7567C"/>
<path d="M20.5081 21.8907C20.5081 18.577 23.1943 15.8907 26.5081 15.8907C29.8218 15.8907 32.5081 18.577 32.5081 21.8907V77.1593C32.5081 80.473 29.8218 83.1593 26.5081 83.1593C23.1943 83.1593 20.5081 80.473 20.5081 77.1593V21.8907Z" fill="#F7567C"/>
<path d="M40.5081 6.42969C40.5081 3.11598 43.1943 0.429688 46.5081 0.429688C49.8218 0.429688 52.5081 3.11598 52.5081 6.42969V92.6204C52.5081 95.9341 49.8218 98.6204 46.5081 98.6204C43.1943 98.6204 40.5081 95.9341 40.5081 92.6204V6.42969Z" fill="#F7567C"/>
<path d="M60.5081 21.8907C60.5081 18.577 63.1943 15.8907 66.5081 15.8907C69.8218 15.8907 72.5081 18.577 72.5081 21.8907V77.1593C72.5081 80.473 69.8218 83.1593 66.5081 83.1593C63.1943 83.1593 60.5081 80.473 60.5081 77.1593V21.8907Z" fill="#F7567C"/>
<path d="M80.5081 40.525C80.5081 37.2113 83.1943 34.525 86.5081 34.525C89.8218 34.525 92.5081 37.2113 92.5081 40.525V58.525C92.5081 61.8387 89.8218 64.525 86.5081 64.525C83.1943 64.525 80.5081 61.8387 80.5081 58.525V40.525Z" fill="#F7567C"/>
<path d="M199.404 81.2232C195.855 81.2232 192.989 80.7141 190.807 79.6959C188.655 78.6777 187.011 77.2377 185.876 75.3759C184.771 73.5141 184.029 71.3322 183.651 68.8304C183.273 66.2995 183.084 63.5359 183.084 60.5395V35.914C183.084 33.7049 184.875 31.9141 187.084 31.9141H194.793C197.002 31.9141 198.793 33.7049 198.793 35.9141V60.8886C198.793 63.3322 199.025 65.2086 199.491 66.5177C199.956 67.7977 200.669 68.685 201.629 69.1795C202.589 69.645 203.796 69.8777 205.251 69.8777C206.211 69.8777 207.142 69.7613 208.044 69.5286C208.975 69.2668 209.789 68.9613 210.487 68.6122C210.514 68.5995 210.54 68.5867 210.566 68.5739C211.624 68.0587 212.145 66.93 212.145 65.7534V35.914C212.145 33.7049 213.936 31.9141 216.145 31.9141H223.942C226.151 31.9141 227.942 33.7049 227.942 35.9141V77.2232C227.942 79.4323 226.151 81.2232 223.942 81.2232H216.509C215.52 81.2232 214.778 81.0632 214.284 80.7432C213.789 80.4232 213.542 79.7395 213.542 78.6922V76.3776C213.542 76.208 213.773 76.1589 213.842 76.3139C213.871 76.3784 213.853 76.4543 213.798 76.4986C212.681 77.3989 211.315 78.2029 209.702 78.9104C208.044 79.6377 206.298 80.205 204.465 80.6123C202.662 81.0195 200.975 81.2232 199.404 81.2232Z" fill="#161725"/>
<path d="M295.358 80.525C293.149 80.525 291.358 78.7341 291.358 76.525V35.914C291.358 33.7049 293.149 31.9141 295.358 31.9141H303.155C305.364 31.9141 307.155 33.7049 307.155 35.9141V76.525C307.155 78.7341 305.364 80.525 303.155 80.525H295.358ZM298.515 26.0668C295.984 26.0668 293.889 25.3104 292.231 23.7977C290.602 22.2559 289.787 20.3068 289.787 17.9504C289.787 16.3504 290.224 14.8813 291.096 13.5431C291.969 12.205 293.118 11.1431 294.544 10.3577C295.998 9.54314 297.584 9.13586 299.3 9.13586C301.889 9.13586 303.969 9.89223 305.54 11.405C307.14 12.8886 307.94 14.8377 307.94 17.2522C307.94 19.6377 307.024 21.7031 305.191 23.4486C303.358 25.194 301.133 26.0668 298.515 26.0668Z" fill="#161725"/>
<path d="M338.502 81.2232C334.022 81.2232 330.211 80.5395 327.069 79.1722C323.956 77.7759 321.454 75.8704 319.563 73.4559C317.673 71.0413 316.305 68.2777 315.462 65.165C314.618 62.0232 314.211 58.7068 314.24 55.2159C314.327 50.0377 315.447 45.6741 317.6 42.125C319.753 38.5759 322.705 35.885 326.458 34.0522C330.211 32.2195 334.516 31.3031 339.374 31.3031C345.367 31.3031 350.138 32.4959 353.687 34.8813C357.265 37.2668 359.825 40.4231 361.367 44.3504C362.909 48.2777 363.636 52.5686 363.549 57.2231C363.491 62.4304 362.385 66.8232 360.233 70.4013C358.109 73.9504 355.171 76.6413 351.418 78.4741C347.665 80.3068 343.36 81.2232 338.502 81.2232ZM338.851 70.3141C341.963 70.3141 344.116 69.1795 345.309 66.9104C346.531 64.6122 347.142 61.1504 347.142 56.525C347.142 53.9068 346.894 51.5213 346.4 49.3686C345.905 47.1868 345.076 45.4559 343.913 44.1759C342.749 42.8668 341.149 42.2122 339.113 42.2122C335.942 42.2122 333.731 43.3613 332.48 45.6595C331.258 47.9577 330.647 51.3177 330.647 55.7395C330.647 58.4159 330.894 60.8595 331.389 63.0704C331.913 65.2813 332.771 67.0413 333.963 68.3504C335.156 69.6595 336.785 70.3141 338.851 70.3141Z" fill="#161725"/>
<path d="M372.498 80.525C370.289 80.525 368.498 78.7341 368.498 76.525V19.6382C368.498 17.4119 370.316 15.614 372.542 15.6385L376.44 15.6813C377.924 15.6813 379.422 15.6377 380.934 15.5504C382.476 15.434 384.134 15.3322 385.909 15.245C387.684 15.1286 389.676 15.0704 391.887 15.0704C397.909 15.0704 402.753 15.754 406.418 17.1213C410.084 18.4595 412.731 20.3795 414.36 22.8813C416.018 25.354 416.847 28.3068 416.847 31.7395C416.847 34.0377 416.484 36.1759 415.756 38.1541C415.058 40.1031 413.982 41.7904 412.527 43.2159C411.073 44.6122 409.254 45.6159 407.073 46.2268C409.574 46.5468 411.814 47.3468 413.793 48.6268C415.8 49.9068 417.371 51.5941 418.505 53.6886C419.669 55.7541 420.251 58.1541 420.251 60.8886C420.251 64.845 419.451 68.3504 417.851 71.405C416.251 74.4304 413.502 76.8159 409.604 78.5613C405.705 80.2777 400.294 81.1359 393.371 81.1359C390.374 81.1359 387.291 81.0486 384.12 80.8741C380.978 80.7286 378.505 80.6123 376.702 80.525H372.498ZM384.644 40.6736C384.644 41.4607 385.213 42.1298 385.996 42.2122C386.549 42.2413 387.131 42.2704 387.742 42.2995C388.382 42.3286 388.978 42.3577 389.531 42.3868C390.084 42.3868 390.549 42.3868 390.927 42.3868C394.389 42.3868 396.978 41.7177 398.694 40.3795C400.44 39.0122 401.313 36.6268 401.313 33.2231C401.313 30.5177 400.353 28.6413 398.433 27.594C396.542 26.5177 393.807 25.9795 390.229 25.9795C389.822 25.9795 389.225 25.9941 388.44 26.0231C387.654 26.0522 386.884 26.1104 386.127 26.1977C385.19 26.2727 384.644 27.0864 384.644 28.0268V40.6736ZM384.644 67.4735C384.644 68.7506 385.345 69.8987 386.607 70.0959C387.538 70.2413 388.542 70.3432 389.618 70.4013C390.723 70.4595 391.713 70.4886 392.585 70.4886C396.309 70.4886 399.087 69.7613 400.92 68.3068C402.753 66.8232 403.669 64.3795 403.669 60.9759C403.669 58.1832 402.753 56.0595 400.92 54.605C399.116 53.1504 396.164 52.4231 392.062 52.4231C391.538 52.4231 390.913 52.4377 390.185 52.4668C389.458 52.4668 388.716 52.4813 387.96 52.5104C387.204 52.5395 386.52 52.5831 385.909 52.6413C385.166 52.6785 384.644 53.3016 384.644 54.0457V67.4735Z" fill="#161725"/>
<path d="M430.926 80.525C428.717 80.525 426.926 78.7341 426.926 76.525V35.914C426.926 33.7049 428.717 31.9141 430.926 31.9141H438.723C440.932 31.9141 442.723 33.7049 442.723 35.9141V76.525C442.723 78.7341 440.932 80.525 438.723 80.525H430.926ZM434.083 26.0668C431.552 26.0668 429.457 25.3104 427.799 23.7977C426.17 22.2559 425.356 20.3068 425.356 17.9504C425.356 16.3504 425.792 14.8813 426.665 13.5431C427.537 12.205 428.686 11.1431 430.112 10.3577C431.566 9.54314 433.152 9.13586 434.868 9.13586C437.457 9.13586 439.537 9.89223 441.108 11.405C442.708 12.8886 443.508 14.8377 443.508 17.2522C443.508 19.6377 442.592 21.7031 440.759 23.4486C438.926 25.194 436.701 26.0668 434.083 26.0668Z" fill="#161725"/>
<path d="M473.07 81.2232C468.59 81.2232 464.779 80.5395 461.637 79.1722C458.524 77.7759 456.023 75.8704 454.132 73.4559C452.241 71.0413 450.874 68.2777 450.03 65.165C449.186 62.0232 448.779 58.7068 448.808 55.2159C448.895 50.0377 450.015 45.6741 452.168 42.125C454.321 38.5759 457.274 35.885 461.026 34.0522C464.779 32.2195 469.084 31.3031 473.943 31.3031C479.935 31.3031 484.706 32.4959 488.255 34.8813C491.834 37.2668 494.394 40.4231 495.935 44.3504C497.477 48.2777 498.204 52.5686 498.117 57.2231C498.059 62.4304 496.954 66.8232 494.801 70.4013C492.677 73.9504 489.739 76.6413 485.986 78.4741C482.234 80.3068 477.928 81.2232 473.07 81.2232ZM473.419 70.3141C476.532 70.3141 478.684 69.1795 479.877 66.9104C481.099 64.6122 481.71 61.1504 481.71 56.525C481.71 53.9068 481.463 51.5213 480.968 49.3686C480.474 47.1868 479.644 45.4559 478.481 44.1759C477.317 42.8668 475.717 42.2122 473.681 42.2122C470.51 42.2122 468.299 43.3613 467.048 45.6595C465.826 47.9577 465.215 51.3177 465.215 55.7395C465.215 58.4159 465.463 60.8595 465.957 63.0704C466.481 65.2813 467.339 67.0413 468.532 68.3504C469.724 69.6595 471.354 70.3141 473.419 70.3141Z" fill="#161725"/>
<path fill-rule="evenodd" clip-rule="evenodd" d="M265.569 27.2886V13.6595C265.569 11.4504 267.36 9.6595 269.569 9.6595H277.104C279.313 9.6595 281.104 11.4504 281.104 13.6595V76.525C281.104 78.7341 279.313 80.525 277.104 80.525H270.878C268.669 80.525 266.878 78.7341 266.878 76.525V75.3893C266.231 76.0346 265.358 76.7719 264.26 77.6013C262.98 78.5613 261.322 79.405 259.285 80.1322C257.278 80.8595 254.835 81.2232 251.955 81.2232C248.522 81.2232 245.365 80.3795 242.485 78.6922C239.605 76.9759 237.293 74.4013 235.547 70.9686C233.802 67.5068 232.929 63.1577 232.929 57.9213C232.929 52.4231 233.933 47.6813 235.94 43.6959C237.976 39.7104 240.827 36.6559 244.493 34.5322C248.187 32.3795 252.507 31.3031 257.453 31.3031C260.478 31.3031 262.922 31.5941 264.784 32.1759C265.108 32.2772 265.412 32.3759 265.696 32.4719L265.569 27.2886ZM258.675 42.2122C260.158 42.2122 261.525 42.3141 262.776 42.5177C263.999 42.7123 264.93 43.0529 265.569 43.5397V67.1451C264.703 67.7322 263.51 68.2649 261.991 68.7431C260.449 69.2086 258.907 69.4413 257.365 69.4413C254.893 69.4413 252.915 68.525 251.431 66.6922C249.947 64.8595 249.22 61.6741 249.249 57.1359C249.249 53.7904 249.656 51.0122 250.471 48.8013C251.285 46.5904 252.391 44.9468 253.787 43.8704C255.213 42.765 256.842 42.2122 258.675 42.2122Z" fill="#161725"/>
<path fill-rule="evenodd" clip-rule="evenodd" d="M131.512 80.525H123.142C120.392 80.525 118.462 77.8146 119.362 75.2162L139.195 17.9362C139.753 16.3253 141.271 15.245 142.975 15.245H155.701C157.402 15.245 158.917 16.321 159.478 17.9272L179.464 75.2072C180.372 77.8072 178.442 80.525 175.688 80.525H167.111C165.341 80.525 163.781 79.3618 163.277 77.6652L160.518 68.3901L137.956 68.3941L135.363 77.6086C134.877 79.3334 133.304 80.525 131.512 80.525ZM146.847 36.8013C147.418 34.5864 150.574 34.581 151.124 36.8013L157.145 57.0486H141.149L146.847 36.8013Z" fill="#161725"/>
</svg>
