<svg width="499" height="99" viewBox="0 0 499 99" fill="none" xmlns="http://www.w3.org/2000/svg">
<path d="M0.508057 40.2191C0.508057 36.9054 3.19435 34.2191 6.50806 34.2191C9.82177 34.2191 12.5081 36.9054 12.5081 40.2191V58.2191C12.5081 61.5328 9.82177 64.2191 6.50806 64.2191C3.19435 64.2191 0.508057 61.5328 0.508057 58.2191V40.2191Z" fill="#F7567C"/>
<path d="M20.5081 21.5848C20.5081 18.2711 23.1943 15.5848 26.5081 15.5848C29.8218 15.5848 32.5081 18.2711 32.5081 21.5848V76.8534C32.5081 80.1671 29.8218 82.8534 26.5081 82.8534C23.1943 82.8534 20.5081 80.1671 20.5081 76.8534V21.5848Z" fill="#F7567C"/>
<path d="M40.5081 6.12378C40.5081 2.81007 43.1943 0.123779 46.5081 0.123779C49.8218 0.123779 52.5081 2.81007 52.5081 6.12378V92.3145C52.5081 95.6282 49.8218 98.3145 46.5081 98.3145C43.1943 98.3145 40.5081 95.6282 40.5081 92.3145V6.12378Z" fill="#F7567C"/>
<path d="M60.5081 21.5848C60.5081 18.2711 63.1943 15.5848 66.5081 15.5848C69.8218 15.5848 72.5081 18.2711 72.5081 21.5848V76.8534C72.5081 80.1671 69.8218 82.8534 66.5081 82.8534C63.1943 82.8534 60.5081 80.1671 60.5081 76.8534V21.5848Z" fill="#F7567C"/>
<path d="M80.5081 40.2191C80.5081 36.9054 83.1943 34.2191 86.5081 34.2191C89.8218 34.2191 92.5081 36.9054 92.5081 40.2191V58.2191C92.5081 61.5328 89.8218 64.2191 86.5081 64.2191C83.1943 64.2191 80.5081 61.5328 80.5081 58.2191V40.2191Z" fill="#F7567C"/>
<path d="M199.404 80.9173C195.855 80.9173 192.989 80.4082 190.807 79.39C188.655 78.3718 187.011 76.9318 185.876 75.07C184.771 73.2082 184.029 71.0263 183.651 68.5245C183.273 65.9936 183.084 63.23 183.084 60.2336V35.6081C183.084 33.399 184.875 31.6081 187.084 31.6081H194.793C197.002 31.6081 198.793 33.399 198.793 35.6081V60.5827C198.793 63.0263 199.025 64.9027 199.491 66.2118C199.956 67.4918 200.669 68.3791 201.629 68.8736C202.589 69.3391 203.796 69.5718 205.251 69.5718C206.211 69.5718 207.142 69.4554 208.044 69.2227C208.975 68.9609 209.789 68.6554 210.487 68.3063C210.514 68.2935 210.54 68.2808 210.566 68.268C211.624 67.7528 212.145 66.6241 212.145 65.4475V35.6081C212.145 33.399 213.936 31.6081 216.145 31.6081H223.942C226.151 31.6081 227.942 33.399 227.942 35.6081V76.9173C227.942 79.1264 226.151 80.9173 223.942 80.9173H216.509C215.52 80.9173 214.778 80.7572 214.284 80.4372C213.789 80.1172 213.542 79.4336 213.542 78.3863V76.0717C213.542 75.9021 213.773 75.853 213.842 76.0079C213.871 76.0725 213.853 76.1483 213.798 76.1927C212.681 77.093 211.315 77.8969 209.702 78.6045C208.044 79.3318 206.298 79.8991 204.465 80.3063C202.662 80.7136 200.975 80.9173 199.404 80.9173Z" fill="#FDF0D5"/>
<path d="M295.358 80.2191C293.149 80.2191 291.358 78.4282 291.358 76.2191V35.6081C291.358 33.399 293.149 31.6081 295.358 31.6081H303.155C305.364 31.6081 307.155 33.399 307.155 35.6081V76.2191C307.155 78.4282 305.364 80.2191 303.155 80.2191H295.358ZM298.515 25.7609C295.984 25.7609 293.889 25.0045 292.231 23.4918C290.602 21.95 289.787 20.0009 289.787 17.6445C289.787 16.0445 290.224 14.5754 291.096 13.2372C291.969 11.899 293.118 10.8372 294.544 10.0518C295.998 9.23723 297.584 8.82996 299.3 8.82996C301.889 8.82996 303.969 9.58632 305.54 11.099C307.14 12.5827 307.94 14.5318 307.94 16.9463C307.94 19.3318 307.024 21.3972 305.191 23.1427C303.358 24.8881 301.133 25.7609 298.515 25.7609Z" fill="#FDF0D5"/>
<path d="M338.502 80.9173C334.022 80.9173 330.211 80.2336 327.069 78.8663C323.956 77.47 321.454 75.5645 319.563 73.15C317.673 70.7354 316.305 67.9718 315.462 64.8591C314.618 61.7172 314.211 58.4009 314.24 54.91C314.327 49.7318 315.447 45.3681 317.6 41.8191C319.753 38.27 322.705 35.5791 326.458 33.7463C330.211 31.9136 334.516 30.9972 339.374 30.9972C345.367 30.9972 350.138 32.19 353.687 34.5754C357.265 36.9609 359.825 40.1172 361.367 44.0445C362.909 47.9718 363.636 52.2627 363.549 56.9172C363.491 62.1245 362.385 66.5172 360.233 70.0954C358.109 73.6445 355.171 76.3354 351.418 78.1682C347.665 80.0009 343.36 80.9173 338.502 80.9173ZM338.851 70.0082C341.963 70.0082 344.116 68.8736 345.309 66.6045C346.531 64.3063 347.142 60.8445 347.142 56.2191C347.142 53.6009 346.894 51.2154 346.4 49.0627C345.905 46.8809 345.076 45.15 343.913 43.87C342.749 42.5609 341.149 41.9063 339.113 41.9063C335.942 41.9063 333.731 43.0554 332.48 45.3536C331.258 47.6518 330.647 51.0118 330.647 55.4336C330.647 58.11 330.894 60.5536 331.389 62.7645C331.913 64.9754 332.771 66.7354 333.963 68.0445C335.156 69.3536 336.785 70.0082 338.851 70.0082Z" fill="#FDF0D5"/>
<path d="M372.498 80.2191C370.289 80.2191 368.498 78.4282 368.498 76.2191V19.3323C368.498 17.106 370.316 15.3081 372.542 15.3326L376.44 15.3754C377.924 15.3754 379.422 15.3318 380.934 15.2445C382.476 15.1281 384.134 15.0263 385.909 14.939C387.684 14.8227 389.676 14.7645 391.887 14.7645C397.909 14.7645 402.753 15.4481 406.418 16.8154C410.084 18.1536 412.731 20.0736 414.36 22.5754C416.018 25.0481 416.847 28.0009 416.847 31.4336C416.847 33.7318 416.484 35.87 415.756 37.8481C415.058 39.7972 413.982 41.4845 412.527 42.91C411.073 44.3063 409.254 45.31 407.073 45.9209C409.574 46.2409 411.814 47.0409 413.793 48.3209C415.8 49.6009 417.371 51.2882 418.505 53.3827C419.669 55.4482 420.251 57.8482 420.251 60.5827C420.251 64.5391 419.451 68.0445 417.851 71.0991C416.251 74.1245 413.502 76.51 409.604 78.2554C405.705 79.9718 400.294 80.83 393.371 80.83C390.374 80.83 387.291 80.7427 384.12 80.5682C380.978 80.4227 378.505 80.3063 376.702 80.2191H372.498ZM384.644 40.3677C384.644 41.1548 385.213 41.8239 385.996 41.9063C386.549 41.9354 387.131 41.9645 387.742 41.9936C388.382 42.0227 388.978 42.0518 389.531 42.0809C390.084 42.0809 390.549 42.0809 390.927 42.0809C394.389 42.0809 396.978 41.4118 398.694 40.0736C400.44 38.7063 401.313 36.3209 401.313 32.9172C401.313 30.2118 400.353 28.3354 398.433 27.2881C396.542 26.2118 393.807 25.6736 390.229 25.6736C389.822 25.6736 389.225 25.6881 388.44 25.7172C387.654 25.7463 386.884 25.8045 386.127 25.8918C385.19 25.9668 384.644 26.7805 384.644 27.7209V40.3677ZM384.644 67.1676C384.644 68.4447 385.345 69.5928 386.607 69.79C387.538 69.9354 388.542 70.0372 389.618 70.0954C390.723 70.1536 391.713 70.1827 392.585 70.1827C396.309 70.1827 399.087 69.4554 400.92 68.0009C402.753 66.5172 403.669 64.0736 403.669 60.67C403.669 57.8772 402.753 55.7536 400.92 54.2991C399.116 52.8445 396.164 52.1172 392.062 52.1172C391.538 52.1172 390.913 52.1318 390.185 52.1609C389.458 52.1609 388.716 52.1754 387.96 52.2045C387.204 52.2336 386.52 52.2772 385.909 52.3354C385.166 52.3726 384.644 52.9957 384.644 53.7398V67.1676Z" fill="#FDF0D5"/>
<path d="M430.926 80.2191C428.717 80.2191 426.926 78.4282 426.926 76.2191V35.6081C426.926 33.399 428.717 31.6081 430.926 31.6081H438.723C440.932 31.6081 442.723 33.399 442.723 35.6081V76.2191C442.723 78.4282 440.932 80.2191 438.723 80.2191H430.926ZM434.083 25.7609C431.552 25.7609 429.457 25.0045 427.799 23.4918C426.17 21.95 425.356 20.0009 425.356 17.6445C425.356 16.0445 425.792 14.5754 426.665 13.2372C427.537 11.899 428.686 10.8372 430.112 10.0518C431.566 9.23723 433.152 8.82996 434.868 8.82996C437.457 8.82996 439.537 9.58632 441.108 11.099C442.708 12.5827 443.508 14.5318 443.508 16.9463C443.508 19.3318 442.592 21.3972 440.759 23.1427C438.926 24.8881 436.701 25.7609 434.083 25.7609Z" fill="#FDF0D5"/>
<path d="M473.07 80.9173C468.59 80.9173 464.779 80.2336 461.637 78.8663C458.524 77.47 456.023 75.5645 454.132 73.15C452.241 70.7354 450.874 67.9718 450.03 64.8591C449.186 61.7172 448.779 58.4009 448.808 54.91C448.895 49.7318 450.015 45.3681 452.168 41.8191C454.321 38.27 457.274 35.5791 461.026 33.7463C464.779 31.9136 469.084 30.9972 473.943 30.9972C479.935 30.9972 484.706 32.19 488.255 34.5754C491.834 36.9609 494.394 40.1172 495.935 44.0445C497.477 47.9718 498.204 52.2627 498.117 56.9172C498.059 62.1245 496.954 66.5172 494.801 70.0954C492.677 73.6445 489.739 76.3354 485.986 78.1682C482.234 80.0009 477.928 80.9173 473.07 80.9173ZM473.419 70.0082C476.532 70.0082 478.684 68.8736 479.877 66.6045C481.099 64.3063 481.71 60.8445 481.71 56.2191C481.71 53.6009 481.463 51.2154 480.968 49.0627C480.474 46.8809 479.644 45.15 478.481 43.87C477.317 42.5609 475.717 41.9063 473.681 41.9063C470.51 41.9063 468.299 43.0554 467.048 45.3536C465.826 47.6518 465.215 51.0118 465.215 55.4336C465.215 58.11 465.463 60.5536 465.957 62.7645C466.481 64.9754 467.339 66.7354 468.532 68.0445C469.724 69.3536 471.354 70.0082 473.419 70.0082Z" fill="#FDF0D5"/>
<path fill-rule="evenodd" clip-rule="evenodd" d="M265.569 26.9827V13.3536C265.569 11.1445 267.36 9.35359 269.569 9.35359H277.104C279.313 9.35359 281.104 11.1445 281.104 13.3536V76.2191C281.104 78.4282 279.313 80.2191 277.104 80.2191H270.878C268.669 80.2191 266.878 78.4282 266.878 76.2191V75.0833C266.231 75.7287 265.358 76.466 264.26 77.2954C262.98 78.2554 261.322 79.0991 259.285 79.8263C257.278 80.5536 254.835 80.9173 251.955 80.9173C248.522 80.9173 245.365 80.0736 242.485 78.3863C239.605 76.67 237.293 74.0954 235.547 70.6627C233.802 67.2009 232.929 62.8518 232.929 57.6154C232.929 52.1172 233.933 47.3754 235.94 43.39C237.976 39.4045 240.827 36.35 244.493 34.2263C248.187 32.0736 252.507 30.9972 257.453 30.9972C260.478 30.9972 262.922 31.2881 264.784 31.87C265.108 31.9713 265.412 32.07 265.696 32.166L265.569 26.9827ZM258.675 41.9063C260.158 41.9063 261.525 42.0081 262.776 42.2118C263.999 42.4064 264.93 42.747 265.569 43.2338V66.8392C264.703 67.4263 263.51 67.959 261.991 68.4372C260.449 68.9027 258.907 69.1354 257.365 69.1354C254.893 69.1354 252.915 68.2191 251.431 66.3863C249.947 64.5536 249.22 61.3682 249.249 56.83C249.249 53.4845 249.656 50.7063 250.471 48.4954C251.285 46.2845 252.391 44.6409 253.787 43.5645C255.213 42.4591 256.842 41.9063 258.675 41.9063Z" fill="#FDF0D5"/>
<path fill-rule="evenodd" clip-rule="evenodd" d="M131.512 80.2191H123.142C120.392 80.2191 118.462 77.5087 119.362 74.9103L139.195 17.6303C139.753 16.0194 141.271 14.939 142.975 14.939H155.701C157.402 14.939 158.917 16.015 159.478 17.6212L179.464 74.9013C180.372 77.5013 178.442 80.2191 175.688 80.2191H167.111C165.341 80.2191 163.781 79.0558 163.277 77.3593L160.518 68.0842L137.956 68.0882L135.363 77.3027C134.877 79.0275 133.304 80.2191 131.512 80.2191ZM146.847 36.4954C147.418 34.2805 150.574 34.2751 151.124 36.4954L157.145 56.7427H141.149L146.847 36.4954Z" fill="#FDF0D5"/>
</svg>
