<svg width="97" height="16" viewBox="0 0 97 16" fill="none" xmlns="http://www.w3.org/2000/svg">
<path d="M2.11899 3.62144C2.11899 2.16236 3.30181 0.979553 4.76087 0.979553C5.22501 0.979553 5.66115 1.09932 6.0402 1.30952L6.03996 1.3097C5.84819 1.46125 5.67397 1.63626 5.52177 1.83175L5.42348 1.95804C5.42348 1.95804 5.59011 1.65812 5.78883 1.29951C4.74623 1.8992 3.66712 3.01187 3.17025 5.07504C4.69435 3.18093 5.65175 2.74166 5.65175 2.74166C3.34803 4.60013 2.54426 6.16562 2.11907 8.35893C2.11901 8.35181 2.11899 8.34467 2.11899 8.33753V3.62144Z" fill="white"/>
<path d="M7.35726 3.13163L7.35722 3.13138H7.35739C7.38719 3.29018 7.40276 3.45399 7.40276 3.62144V8.33753C7.40276 9.79661 6.21994 10.9794 4.76087 10.9794C3.50878 10.9794 2.46014 10.1084 2.18782 8.93922L2.21003 8.86237C2.54735 7.69527 3.00259 6.12006 5.16702 5.06323C6.09702 4.56048 6.29821 4.44367 6.76696 4.00076C6.95436 3.82364 7.13206 3.63867 7.29572 3.44248L5.96519 3.80143C5.96519 3.80143 6.49256 3.56709 6.99619 3.34225C7.12466 3.28491 7.24564 3.21415 7.35726 3.13163Z" fill="white"/>
<path d="M0.808962 6.48048C1.02602 6.48048 1.20197 6.65644 1.20197 6.87349V8.62019C1.20197 10.5978 2.80513 12.2009 4.78271 12.2009C6.76028 12.2009 8.36345 10.5978 8.36345 8.62019V6.87349C8.36345 6.65644 8.53939 6.48048 8.75645 6.48048C8.97351 6.48048 9.14946 6.65644 9.14946 6.87349V8.70752C9.14946 11.1192 7.1944 13.0743 4.78271 13.0743C2.37101 13.0743 0.415955 11.1192 0.415955 8.70752V6.87349C0.415955 6.65644 0.591904 6.48048 0.808962 6.48048Z" fill="white"/>
<path d="M4.78271 13.0743H5.17572V15.214H6.57308C6.79014 15.214 6.96608 15.3899 6.96608 15.607C6.96608 15.824 6.79014 16 6.57308 16H2.99234C2.77528 16 2.59933 15.824 2.59933 15.607C2.59933 15.3899 2.77528 15.214 2.99234 15.214H4.34603V13.0743H4.78271Z" fill="white"/>
<path d="M22.7305 3.31738L24.5323 3.2207L28.5313 14.4004L30.0255 14.7432V15.8242H24.8047V14.7432L26.4747 14.4004L25.7891 12.4053H21.1133L20.4102 14.4004L22.0977 14.7432V15.8242H17.1495V14.7432L18.626 14.4004L22.7305 3.31738ZM23.4864 5.5498L21.5967 10.9639H25.3057L23.4864 5.5498Z" fill="white"/>
<path d="M41.3546 15.7363L38.3839 15.8242L38.2081 14.5674C37.8506 14.8896 37.3643 15.209 36.7491 15.5254C36.1339 15.8418 35.5098 16 34.877 16C33.9161 16 33.1954 15.7188 32.7149 15.1562C32.2344 14.5938 31.9942 13.8027 31.9942 12.7832V7.7207L30.4649 7.36035V6.37598L33.796 6.28809V12.5986C33.796 13.2373 33.9219 13.709 34.1739 14.0137C34.4258 14.3184 34.8389 14.4707 35.4131 14.4707C35.8702 14.4707 36.2891 14.3682 36.67 14.1631C37.0567 13.9521 37.379 13.7207 37.6368 13.4688C37.8946 13.2168 38.0235 13.0791 38.0235 13.0557V7.7207L36.4942 7.36035V6.37598L39.8253 6.28809V14.3828L41.3546 14.7432V15.7363Z" fill="white"/>
<path d="M52.4288 15.7363L49.3702 15.8242L49.2296 14.7959C48.4268 15.5986 47.4835 16 46.3995 16C45.1397 16 44.1934 15.584 43.5606 14.752C42.9337 13.9199 42.6202 12.7773 42.6202 11.3242C42.6202 9.73047 43.0215 8.46191 43.8243 7.51855C44.6329 6.5752 45.8223 6.10352 47.3926 6.10352C47.9786 6.10352 48.5469 6.2002 49.0977 6.39355V3.40527L47.5684 3.04492V2.05176L50.8995 1.96387V14.3828L52.4288 14.7432V15.7363ZM49.0977 7.90527C49.0626 7.88184 48.9717 7.84375 48.8253 7.79102C48.6846 7.73242 48.4737 7.67676 48.1924 7.62402C47.9112 7.57129 47.5831 7.54492 47.2081 7.54492C45.4092 7.54492 44.5098 8.74609 44.5098 11.1484C44.5098 12.2031 44.6915 13.0381 45.0547 13.6533C45.4239 14.2627 45.9922 14.5674 46.7598 14.5674C47.2169 14.5674 47.6182 14.4678 47.9639 14.2686C48.3155 14.0693 48.5909 13.8525 48.7901 13.6182C48.9952 13.3838 49.0977 13.249 49.0977 13.2139V7.90527Z" fill="white"/>
<path d="M54.7755 3.31738C54.7755 2.91895 54.8897 2.6084 55.1182 2.38574C55.3467 2.16309 55.6221 2.05176 55.9444 2.05176C56.7237 2.05176 57.1133 2.47363 57.1133 3.31738C57.1133 3.7041 56.9932 4.01172 56.753 4.24023C56.5128 4.46289 56.2432 4.57422 55.9444 4.57422C55.587 4.57422 55.3028 4.46289 55.0919 4.24023C54.8809 4.01758 54.7755 3.70996 54.7755 3.31738ZM58.2823 15.8242H53.6065V14.8311L55.1358 14.3828V7.7207L53.6065 7.36035V6.37598L56.9376 6.28809V14.3828L58.2823 14.8311V15.8242Z" fill="white"/>
<path d="M64.2237 6.10352C65.5538 6.10352 66.5909 6.53418 67.335 7.39551C68.0792 8.25098 68.4512 9.41113 68.4512 10.876C68.4512 11.8838 68.2637 12.7773 67.8887 13.5566C67.5196 14.3359 66.9922 14.9395 66.3067 15.3672C65.627 15.7891 64.8419 16 63.9512 16C62.586 16 61.5255 15.5898 60.7696 14.7695C60.0137 13.9492 59.6358 12.7422 59.6358 11.1484C59.6358 10.1406 59.8292 9.25586 60.2159 8.49414C60.6085 7.72656 61.1505 7.1377 61.8419 6.72754C62.5333 6.31152 63.3272 6.10352 64.2237 6.10352ZM64.1358 7.54492C63.2452 7.54492 62.586 7.83789 62.1583 8.42383C61.7364 9.00391 61.5255 9.87988 61.5255 11.0518C61.5255 13.3896 62.3663 14.5615 64.0479 14.5674C64.9268 14.5674 65.5655 14.2686 65.9639 13.6709C66.3624 13.0674 66.5616 12.165 66.5616 10.9639C66.5616 8.68457 65.753 7.54492 64.1358 7.54492Z" fill="white"/>
<path d="M71.4307 4.66211L69.9014 4.30176V3.31738L73.2325 3.2207H75.2979C76.4756 3.2207 77.4161 3.4873 78.1192 4.02051C78.8223 4.54785 79.1739 5.33301 79.1739 6.37598C79.1739 7.92285 78.3917 8.89551 76.8272 9.29395C77.753 9.51074 78.4503 9.87109 78.919 10.375C79.3878 10.873 79.6221 11.4883 79.6221 12.2207C79.6221 13.457 79.2354 14.3682 78.462 14.9541C77.6885 15.5342 76.546 15.8242 75.0342 15.8242H69.9014V14.7432L71.4307 14.3828V4.66211ZM74.5772 8.62598C75.421 8.62598 76.0831 8.45605 76.5635 8.11621C77.044 7.77051 77.2842 7.24902 77.2842 6.55176C77.2842 5.94238 77.0909 5.47656 76.7042 5.1543C76.3233 4.82617 75.8253 4.66211 75.21 4.66211H73.2325V8.62598H74.5772ZM75.1221 14.3828C75.9717 14.3828 76.6192 14.207 77.0645 13.8555C77.5098 13.498 77.7325 12.9854 77.7325 12.3174C77.7325 11.4561 77.4688 10.8496 76.9415 10.498C76.4141 10.1465 75.626 9.9707 74.5772 9.9707H73.2325V14.3828H75.1221Z" fill="white"/>
<path d="M82.4083 3.31738C82.4083 2.91895 82.5225 2.6084 82.751 2.38574C82.9796 2.16309 83.2549 2.05176 83.5772 2.05176C84.3565 2.05176 84.7462 2.47363 84.7462 3.31738C84.7462 3.7041 84.626 4.01172 84.3858 4.24023C84.1456 4.46289 83.876 4.57422 83.5772 4.57422C83.2198 4.57422 82.9356 4.46289 82.7247 4.24023C82.5137 4.01758 82.4083 3.70996 82.4083 3.31738ZM85.9151 15.8242H81.2393V14.8311L82.7686 14.3828V7.7207L81.2393 7.36035V6.37598L84.5704 6.28809V14.3828L85.9151 14.8311V15.8242Z" fill="white"/>
<path d="M91.8565 6.10352C93.1866 6.10352 94.2237 6.53418 94.9678 7.39551C95.712 8.25098 96.084 9.41113 96.084 10.876C96.084 11.8838 95.8965 12.7773 95.5215 13.5566C95.1524 14.3359 94.6251 14.9395 93.9395 15.3672C93.2598 15.7891 92.4747 16 91.584 16C90.2188 16 89.1583 15.5898 88.4024 14.7695C87.6465 13.9492 87.2686 12.7422 87.2686 11.1484C87.2686 10.1406 87.462 9.25586 87.8487 8.49414C88.2413 7.72656 88.7833 7.1377 89.4747 6.72754C90.1661 6.31152 90.96 6.10352 91.8565 6.10352ZM91.7686 7.54492C90.878 7.54492 90.2188 7.83789 89.7911 8.42383C89.3692 9.00391 89.1583 9.87988 89.1583 11.0518C89.1583 13.3896 89.9991 14.5615 91.6807 14.5674C92.5596 14.5674 93.1983 14.2686 93.5967 13.6709C93.9952 13.0674 94.1944 12.165 94.1944 10.9639C94.1944 8.68457 93.3858 7.54492 91.7686 7.54492Z" fill="white"/>
</svg>
